<?xml version="1.0" standalone="no"?>
<!DOCTYPE svg PUBLIC "-//W3C//DTD SVG 20010904//EN"
 "http://www.w3.org/TR/2001/REC-SVG-20010904/DTD/svg10.dtd">
<svg version="1.0" xmlns="http://www.w3.org/2000/svg"
 width="504.000000pt" height="495.000000pt" viewBox="0 0 504.000000 495.000000"
 preserveAspectRatio="xMidYMid meet">

<g transform="translate(0.000000,495.000000) scale(0.100000,-0.100000)"
fill="#000000" stroke="none">
<path d="M2418 3596 c-206 -59 -245 -240 -111 -514 37 -76 154 -266 182 -295
17 -18 194 258 241 378 65 161 62 266 -10 348 -68 77 -198 113 -302 83z"/>
<path d="M1822 3362 c-101 -36 -180 -125 -203 -228 -40 -176 115 -310 453
-393 68 -16 142 -33 166 -36 41 -7 42 -6 42 20 0 47 -50 274 -77 349 -50 142
-122 244 -197 283 -46 24 -124 26 -184 5z"/>
<path d="M2993 3340 c-116 -59 -208 -236 -263 -502 -12 -57 -23 -114 -26 -126
-5 -23 -3 -24 38 -17 202 30 377 81 474 136 156 88 204 217 133 357 -50 101
-140 162 -249 169 -52 3 -73 0 -107 -17z"/>
<path d="M1526 2756 c-106 -40 -179 -183 -156 -308 11 -58 40 -121 73 -156 89
-97 275 -85 487 30 86 47 260 160 260 169 0 9 -141 106 -234 162 -171 100
-332 139 -430 103z"/>
<path d="M3300 2744 c-63 -12 -163 -50 -247 -95 -103 -54 -263 -158 -263 -170
0 -14 243 -171 326 -210 211 -100 356 -89 443 31 94 130 52 353 -80 420 -36
19 -135 32 -179 24z"/>
<path d="M2415 2600 c-83 -55 -85 -156 -3 -225 28 -24 38 -27 85 -23 128 11
174 152 77 238 -28 24 -43 30 -82 30 -30 0 -58 -7 -77 -20z"/>
<path d="M2155 2264 c-286 -51 -480 -145 -535 -259 -65 -134 21 -317 177 -375
30 -11 73 -20 96 -20 51 0 132 37 168 76 88 95 162 286 203 522 15 84 24 80
-109 56z"/>
<path d="M2706 2188 c39 -244 109 -428 197 -517 59 -60 92 -75 162 -76 49 0
74 6 127 33 76 37 110 73 147 152 99 215 -82 381 -513 470 -145 30 -135 35
-120 -62z"/>
<path d="M2422 2108 c-219 -308 -275 -527 -164 -650 44 -48 90 -73 168 -89 99
-20 224 22 278 94 73 99 60 240 -40 439 -37 75 -170 288 -179 288 -2 0 -30
-37 -63 -82z"/>
</g>
</svg>
