<?xml version="1.0" standalone="no"?>
<!DOCTYPE svg PUBLIC "-//W3C//DTD SVG 20010904//EN"
 "http://www.w3.org/TR/2001/REC-SVG-20010904/DTD/svg10.dtd">
<svg version="1.0" xmlns="http://www.w3.org/2000/svg"
 width="757.000000pt" height="220.000000pt" viewBox="0 0 757.000000 220.000000"
 preserveAspectRatio="xMidYMid meet">

<g transform="translate(0.000000,220.000000) scale(0.100000,-0.100000)"
fill="#000000" stroke="none">
<path d="M1620 1290 c0 -603 0 -610 20 -610 20 0 20 7 20 610 0 603 0 610 -20
610 -20 0 -20 -7 -20 -610z"/>
<path d="M2900 1485 c0 -228 -4 -415 -8 -415 -5 0 -17 9 -28 21 -58 64 -188
84 -270 41 -166 -86 -177 -319 -20 -416 89 -56 215 -45 281 24 16 17 32 30 37
30 4 0 8 -20 8 -45 0 -38 3 -45 20 -45 20 0 20 7 20 610 0 603 0 610 -20 610
-20 0 -20 -7 -20 -415z m-117 -391 c88 -45 127 -131 102 -226 -36 -139 -203
-191 -311 -96 -107 95 -90 252 35 318 45 24 130 26 174 4z"/>
<path d="M590 1632 c-29 -13 -57 -37 -68 -59 -31 -57 -1 -167 75 -286 l45 -69
45 68 c86 127 114 229 80 293 -24 47 -124 77 -177 53z"/>
<path d="M262 1500 c-44 -27 -72 -76 -72 -127 0 -83 87 -144 257 -182 l81 -18
-5 36 c-20 139 -78 271 -133 298 -37 19 -91 16 -128 -7z"/>
<path d="M877 1480 c-19 -16 -46 -56 -61 -89 -27 -61 -64 -207 -54 -216 10
-10 164 28 223 54 75 34 115 79 115 129 0 122 -138 197 -223 122z"/>
<path d="M1750 1340 c-11 -11 -20 -24 -20 -30 0 -12 37 -50 48 -50 18 0 52 33
52 50 0 17 -34 50 -52 50 -5 0 -17 -9 -28 -20z"/>
<path d="M100 1172 c-77 -77 -48 -216 51 -242 31 -9 52 -7 99 6 60 17 220 107
220 124 0 14 -119 92 -180 117 -33 13 -76 23 -108 23 -46 0 -58 -4 -82 -28z"/>
<path d="M990 1166 c-30 -12 -86 -42 -124 -66 l-68 -43 23 -19 c54 -42 174
-107 220 -118 103 -25 169 18 177 113 11 136 -86 192 -228 133z"/>
<path d="M1760 920 c0 -233 1 -240 20 -240 19 0 20 7 20 240 0 233 -1 240 -20
240 -19 0 -20 -7 -20 -240z"/>
<path d="M1900 920 l0 -240 25 0 25 0 0 142 c0 124 3 147 21 186 52 106 207
137 296 59 61 -54 73 -92 73 -249 0 -131 1 -138 20 -138 19 0 20 7 20 148 0
162 -10 200 -66 256 -89 88 -220 96 -320 20 l-44 -34 0 45 c0 41 -2 45 -25 45
l-25 0 0 -240z"/>
<path d="M3190 1146 c-134 -36 -208 -191 -155 -324 21 -51 94 -118 144 -132
51 -14 126 -12 165 4 18 7 49 28 69 46 l37 32 0 -47 c0 -42 2 -46 22 -43 22 3
22 5 24 193 2 242 -2 285 -27 285 -16 0 -19 -8 -19 -45 l0 -46 -39 31 c-38 31
-116 61 -155 59 -12 0 -41 -6 -66 -13z m172 -65 c108 -74 117 -238 17 -314
-132 -100 -318 -12 -319 151 0 75 46 147 115 179 46 21 145 12 187 -16z"/>
<path d="M4082 1145 c-63 -19 -107 -58 -137 -119 -50 -101 -30 -214 51 -284
85 -75 206 -83 297 -19 26 17 27 21 14 35 -14 13 -20 12 -53 -9 -82 -50 -200
-23 -259 60 -26 37 -30 51 -30 110 0 58 4 74 29 109 56 81 168 106 259 58 40
-22 47 -23 58 -9 11 12 9 18 -11 34 -29 22 -112 49 -149 48 -14 0 -45 -6 -69
-14z"/>
<path d="M4546 1149 c-57 -14 -102 -45 -135 -92 -36 -53 -42 -75 -42 -140 0
-73 25 -130 78 -177 74 -65 168 -78 258 -36 89 41 135 115 135 213 -1 157
-143 269 -294 232z m166 -68 c80 -55 109 -160 68 -245 -89 -186 -369 -124
-370 82 0 75 46 147 115 179 46 21 145 12 187 -16z"/>
<path d="M4920 920 c0 -233 1 -240 20 -240 19 0 20 7 20 123 0 136 10 186 47
235 72 96 234 96 306 0 37 -49 47 -99 47 -235 0 -116 1 -123 20 -123 19 0 20
7 20 138 0 123 2 142 23 182 12 24 39 58 60 74 35 28 46 31 111 31 62 0 78 -4
113 -27 69 -45 83 -89 83 -256 l0 -142 25 0 25 0 0 120 c0 65 -5 142 -11 170
-38 177 -264 246 -398 121 -15 -14 -32 -35 -39 -46 -10 -19 -13 -18 -47 23
-53 61 -105 86 -185 86 -69 0 -128 -23 -164 -63 -28 -31 -36 -26 -36 24 0 38
-3 45 -20 45 -19 0 -20 -7 -20 -240z"/>
<path d="M5910 705 l0 -455 25 0 25 0 0 262 0 262 33 -32 c68 -66 171 -81 262
-38 60 28 87 56 114 116 66 145 -24 308 -186 335 -57 9 -143 -17 -188 -56
l-35 -31 0 46 c0 42 -2 46 -25 46 l-25 0 0 -455z m323 391 c18 -7 46 -29 64
-49 82 -94 63 -231 -40 -291 -108 -63 -223 -31 -279 77 -28 56 -22 140 14 195
48 71 159 103 241 68z"/>
<path d="M6655 1151 c-157 -39 -233 -221 -149 -358 80 -128 262 -152 367 -47
53 53 71 98 71 174 0 110 -62 194 -166 225 -55 16 -76 17 -123 6z m138 -57
c88 -45 127 -131 102 -226 -36 -140 -203 -191 -312 -95 -39 34 -72 97 -73 137
0 73 48 152 112 183 43 21 130 21 171 1z"/>
<path d="M7020 920 l0 -240 24 0 25 0 3 153 c3 143 5 156 27 189 31 45 79 77
125 85 30 5 36 10 36 29 0 13 -4 24 -8 24 -30 0 -111 -34 -143 -60 l-39 -31 0
46 c0 41 -2 45 -25 45 l-25 0 0 -240z"/>
<path d="M610 1117 c-38 -19 -49 -61 -23 -95 29 -39 74 -42 102 -6 26 33 27
55 4 82 -24 27 -53 34 -83 19z"/>
<path d="M413 925 c-70 -14 -180 -64 -208 -95 -27 -30 -31 -107 -7 -150 26
-47 98 -85 146 -76 69 13 129 104 160 243 9 40 16 77 16 82 0 13 -26 12 -107
-4z"/>
<path d="M756 908 c34 -189 88 -294 160 -312 64 -17 158 44 170 111 16 83 -20
133 -131 180 -40 18 -174 53 -199 53 -3 0 -3 -15 0 -32z"/>
<path d="M591 831 c-70 -103 -97 -179 -92 -263 2 -30 51 -77 93 -89 52 -13
117 3 149 37 35 38 37 109 5 190 -24 58 -99 184 -111 184 -2 0 -22 -27 -44
-59z"/>
</g>
</svg>
